<?xml version="1.0" encoding="UTF-8"?>
<svg version="1.1" xmlns="http://www.w3.org/2000/svg" width="1080" height="1080">
<path d="M0 0 C1.22714722 -0.00045319 2.45429443 -0.00090637 3.71862793 -0.00137329 C20.55113656 0.01673643 37.24208206 0.57850922 54 2.1875 C55.31103699 2.31152191 55.31103699 2.31152191 56.64855957 2.43804932 C65.62977917 3.31375993 74.33818827 4.49011362 83.09545898 6.75292969 C85.61300831 7.3428971 87.98639106 7.64360751 90.5625 7.8125 C96.95007653 8.34986755 103.03627757 10.08008763 109.21142578 11.71533203 C111.99814077 12.43948128 114.79284611 13.1252646 117.58984375 13.80859375 C130.78637673 17.07346599 143.75561434 20.82293341 156.6875 25 C157.40307068 25.2297049 158.11864136 25.45940979 158.855896 25.69607544 C172.37098931 30.05034227 185.19812159 35.49812014 198.0625 41.5 C206.25540813 45.35189871 206.25540813 45.35189871 214.54296875 48.9921875 C221.42285448 51.95866685 227.96449777 55.53574477 234.5 59.1875 C235.28060791 59.6218335 236.06121582 60.05616699 236.86547852 60.50366211 C242.44859574 63.62007439 247.97642057 66.81695322 253.46484375 70.09765625 C255.79612132 71.49418039 255.79612132 71.49418039 258.75 72.375 C258.75 73.035 258.75 73.695 258.75 74.375 C259.47582275 74.64127197 260.20164551 74.90754395 260.94946289 75.18188477 C263.75011636 76.37504957 266.04391703 77.75614994 268.55859375 79.46484375 C269.46359619 80.07884033 270.36859863 80.69283691 271.30102539 81.32543945 C272.25356201 81.98116943 273.20609863 82.63689941 274.1875 83.3125 C275.17161865 83.98692139 276.1557373 84.66134277 277.16967773 85.35620117 C284.39261825 90.3461336 291.34345504 95.57527756 298.15869141 101.10302734 C300.35115775 102.85552039 302.58985531 104.54380697 304.82910156 106.23583984 C310.18385331 110.28711169 315.30511313 114.51303099 320.23828125 119.07421875 C322.26437951 120.93016257 324.31802685 122.72925912 326.39941406 124.52172852 C330.72063429 128.29947986 334.81031673 132.27384014 338.87109375 136.328125 C339.61529068 137.06899353 340.35948761 137.80986206 341.12623596 138.57318115 C342.68971072 140.13162609 344.25186309 141.69139872 345.81274414 143.25244141 C348.17248384 145.60999773 350.54010929 147.95943286 352.90820312 150.30859375 C359.96835315 157.34297052 366.89807474 164.31822477 373.03857422 172.18383789 C374.76071034 174.38871259 376.57114701 176.47906766 378.4375 178.5625 C387.75 189.11521612 387.75 189.11521612 387.75 192.375 C388.41 192.375 389.07 192.375 389.75 192.375 C390.9765625 193.95703125 390.9765625 193.95703125 392.375 196.1875 C394.62130434 199.67874409 396.95562531 203.04714749 399.4375 206.375 C410.35051629 221.2678111 419.69343242 237.24083452 428.63720703 253.36962891 C429.64767769 255.19060434 430.66523992 257.00764011 431.68359375 258.82421875 C442.77016231 279.03819095 451.95938904 300.31315221 459.57421875 322.05859375 C460.41121914 324.41943537 461.28507065 326.76735005 462.18359375 329.10546875 C464.05826493 334.08378204 465.591417 339.1581454 467.125 344.25 C467.42954102 345.2594165 467.73408203 346.26883301 468.04785156 347.30883789 C468.95458541 350.32913879 469.8542395 353.35142791 470.75 356.375 C471.00104492 357.22078613 471.25208984 358.06657227 471.51074219 358.93798828 C474.20926823 368.10432046 476.41896448 377.21714333 478.06640625 386.62890625 C478.71098055 390.16117343 479.47799652 393.63337101 480.3125 397.125 C482.54289752 406.60710881 483.92620743 415.93359445 484.50390625 425.66015625 C484.65390885 428.46887971 484.65390885 428.46887971 485.75 431.375 C488.28020799 448.15455131 488.06661823 465.26574483 488.01074219 482.19042969 C487.99934854 485.67586882 488.00612446 489.16100227 488.01763248 492.64643097 C488.06092668 508.16019234 487.6720167 523.52889872 486.0088501 538.96765137 C485.65949718 542.21669121 485.34588683 545.46895111 485.03050232 548.72143555 C484.29930348 555.94467898 483.16630475 562.99985566 481.6328125 570.1015625 C480.9543687 573.27218686 480.39303853 576.44903717 479.8671875 579.6484375 C477.45161466 593.8848238 473.88135315 607.59842717 469.8125 621.4375 C469.55969269 622.30082947 469.30688538 623.16415894 469.04641724 624.0536499 C464.18464827 640.57993136 458.63349822 656.71986894 452 672.625 C451.74399017 673.24063812 451.48798035 673.85627625 451.22421265 674.49057007 C444.3140301 691.07825726 436.72389122 707.15191808 427.70800781 722.70117188 C426.37875216 725.02364301 425.12862305 727.38602511 423.875 729.75 C415.80310785 744.56689793 406.46343789 758.59540335 396.75 772.375 C396.21713379 773.13167969 395.68426758 773.88835938 395.13525391 774.66796875 C393.62108684 776.80693388 392.0952311 778.93680892 390.5625 781.0625 C390.10488281 781.70469482 389.64726563 782.34688965 389.17578125 783.00854492 C388.08421413 784.50216982 386.92357271 785.94490867 385.75 787.375 C385.09 787.375 384.43 787.375 383.75 787.375 C383.50636719 788.10074219 383.26273438 788.82648437 383.01171875 789.57421875 C381.59485241 792.71939883 379.91884189 794.67704281 377.5625 797.1875 C376.35013672 798.49654297 376.35013672 798.49654297 375.11328125 799.83203125 C374.33339844 800.67121094 373.55351563 801.51039063 372.75 802.375 C371.57714939 803.70289696 370.40992079 805.03579403 369.25 806.375 C365.84782412 810.28237137 362.37636456 814.12487991 358.8984375 817.96484375 C356.98806161 820.10793815 355.14355335 822.28933803 353.3125 824.5 C352.466875 825.44875 351.62125 826.3975 350.75 827.375 C350.09 827.375 349.43 827.375 348.75 827.375 C348.75 828.035 348.75 828.695 348.75 829.375 C348.09 829.375 347.43 829.375 346.75 829.375 C346.75 830.035 346.75 830.695 346.75 831.375 C346.09 831.375 345.43 831.375 344.75 831.375 C344.09 832.695 343.43 834.015 342.75 835.375 C342.09 835.375 341.43 835.375 340.75 835.375 C340.49476563 835.96796875 340.23953125 836.5609375 339.9765625 837.171875 C338.62376259 839.6017449 337.26658724 840.86736266 335.125 842.625 C332.20102684 845.09062061 329.47128404 847.62563614 326.8125 850.375 C323.50910208 853.72321146 320.03367222 856.57908257 316.28125 859.40625 C313.85450287 861.29371999 311.52111863 863.26673922 309.19555664 865.27685547 C302.52907439 871.03540449 295.5859869 876.20795754 288.36083984 881.24023438 C286.02131389 882.88832723 283.73303563 884.60387136 281.4375 886.3125 C267.91760063 896.17242661 253.50591689 904.77490173 238.9050293 912.91845703 C235.6841453 914.71547807 232.48508374 916.53214351 229.3125 918.4140625 C219.4721424 924.23936853 209.22917598 928.83037112 198.75 933.375 C196.95442013 934.16144246 195.15884724 934.94790085 193.36328125 935.734375 C182.93863946 940.27539063 172.46653225 944.57235952 161.75 948.375 C160.78537842 948.72377197 160.78537842 948.72377197 159.80126953 949.07958984 C130.32113617 959.67503261 96.97871117 969.09085285 65.625 970.9375 C62.36162164 971.13298354 59.8586936 971.3387688 56.75 972.375 C54.14249498 972.57973322 51.54868909 972.747163 48.9375 972.875 C43.41328692 973.14117842 43.41328692 973.14117842 37.93669128 973.88449097 C34.50272213 974.41306206 31.25650417 974.50209778 27.7824707 974.50439453 C27.11341705 974.50614685 26.4443634 974.50789917 25.7550354 974.50970459 C23.56192366 974.51407631 21.36889369 974.51120272 19.17578125 974.5078125 C17.64454635 974.50848665 16.11331156 974.5094576 14.58207703 974.51071167 C11.38210017 974.51218209 8.18215132 974.51005429 4.98217773 974.50537109 C0.87975252 974.49965968 -3.22260747 974.50296586 -7.32503033 974.50894356 C-10.48283888 974.51255452 -13.64063192 974.51140836 -16.79844093 974.50881577 C-18.31152161 974.50814873 -19.82460369 974.50896713 -21.33768272 974.51129532 C-23.44871134 974.51383218 -25.55963361 974.5099673 -27.6706543 974.50439453 C-28.87167282 974.50359894 -30.07269135 974.50280334 -31.31010437 974.50198364 C-34.25 974.375 -34.25 974.375 -37.25 973.375 C-39.32295863 973.13452886 -41.40093962 972.9364828 -43.48046875 972.76171875 C-44.74544189 972.65061768 -46.01041504 972.5395166 -47.3137207 972.42504883 C-47.98537262 972.3665274 -48.65702454 972.30800598 -49.34902954 972.24771118 C-86.73599032 968.93213487 -122.72574846 960.29843281 -158.25 948.375 C-159.28044434 948.02969238 -160.31088867 947.68438477 -161.37255859 947.32861328 C-198.17700467 934.83239355 -233.98315915 917.04838621 -266.25 895.375 C-266.98460449 894.88386719 -267.71920898 894.39273438 -268.47607422 893.88671875 C-278.67567997 887.04955184 -288.65691917 880.04430016 -298.25 872.375 C-299.15621094 871.65054688 -300.06242188 870.92609375 -300.99609375 870.1796875 C-307.99088502 864.51482026 -314.81471316 858.65016262 -321.61962891 852.75976562 C-322.73268958 851.81438075 -323.86086571 850.88657991 -325.00146484 849.97460938 C-326.45053378 848.81467491 -327.85481484 847.59921693 -329.25 846.375 C-329.25 845.715 -329.25 845.055 -329.25 844.375 C-330.05872559 844.05305664 -330.05872559 844.05305664 -330.88378906 843.72460938 C-334.10069832 841.88978949 -336.52139255 839.38914382 -339.109375 836.78125 C-339.65861633 836.23392212 -340.20785767 835.68659424 -340.77374268 835.12268066 C-341.92925859 833.9685222 -343.08226685 832.81184833 -344.23291016 831.65283203 C-346.000735 829.87426054 -347.7790213 828.10665237 -349.55859375 826.33984375 C-350.68032971 825.21678692 -351.80144551 824.09311024 -352.921875 822.96875 C-353.45617126 822.4385022 -353.99046753 821.90825439 -354.54095459 821.36193848 C-358.25 817.60493854 -358.25 817.60493854 -358.25 815.375 C-358.91 815.375 -359.57 815.375 -360.25 815.375 C-360.25 814.715 -360.25 814.055 -360.25 813.375 C-360.91 813.375 -361.57 813.375 -362.25 813.375 C-363.84375 811.609375 -363.84375 811.609375 -365.75 809.125 C-368.80443289 805.20496067 -371.91919681 801.3599104 -375.125 797.5625 C-380.35943385 791.31317592 -385.37129385 784.90519898 -390.25 778.375 C-390.99854248 777.37339844 -390.99854248 777.37339844 -391.76220703 776.3515625 C-417.31374428 741.97856752 -439.63890349 703.12749965 -454.03125 662.71484375 C-454.82911546 660.52838553 -455.69731084 658.36603764 -456.640625 656.23828125 C-464.7220378 637.64536244 -469.56642758 617.02846906 -474.25 597.375 C-474.51941406 596.24626465 -474.78882813 595.1175293 -475.06640625 593.95458984 C-479.30746092 575.89681418 -482.19595437 557.80492438 -484.25 539.375 C-484.36859375 538.37049805 -484.4871875 537.36599609 -484.609375 536.33105469 C-488.63137344 501.15053859 -487.61101681 464.47722922 -483.25 429.375 C-483.10546387 428.19583008 -482.96092773 427.01666016 -482.81201172 425.80175781 C-473.05559007 348.7660033 -444.64993704 274.14035156 -400.25 210.375 C-399.76450684 209.67697266 -399.27901367 208.97894531 -398.77880859 208.25976562 C-391.25598625 197.50813179 -383.24420807 187.27611446 -374.80126953 177.23486328 C-373.40905452 175.56569521 -372.039709 173.88212404 -370.68359375 172.18359375 C-366.50146954 166.95412018 -362.14363511 162.14133318 -357.34765625 157.46875 C-355.48068738 155.6052578 -353.76419398 153.70053147 -352.0625 151.6875 C-348.52937911 147.57668873 -344.74926729 143.7253333 -340.9375 139.875 C-340.31399658 139.23860596 -339.69049316 138.60221191 -339.0480957 137.9465332 C-338.45859131 137.35573975 -337.86908691 136.76494629 -337.26171875 136.15625 C-336.73022217 135.62064453 -336.19872559 135.08503906 -335.65112305 134.53320312 C-334.25 133.375 -334.25 133.375 -332.25 133.375 C-331.92 132.385 -331.59 131.395 -331.25 130.375 C-329.9296875 129.0078125 -329.9296875 129.0078125 -328.125 127.5 C-327.403125 126.88898438 -326.68125 126.27796875 -325.9375 125.6484375 C-325.050625 124.89820313 -324.16375 124.14796875 -323.25 123.375 C-322.12320403 122.39007172 -320.99834181 121.40292854 -319.875 120.4140625 C-295.5489473 99.03711166 -269.1697484 80.73075966 -241.25 64.375 C-240.54198242 63.95831055 -239.83396484 63.54162109 -239.10449219 63.11230469 C-229.96969464 57.76047119 -220.62513443 53.05353733 -211.015625 48.61328125 C-207.42602464 46.95152114 -203.89715143 45.19092844 -200.37109375 43.3984375 C-154.4573278 20.35436269 -100.98653986 7.75097164 -50.25 2.375 C-49.44369141 2.28812927 -48.63738281 2.20125854 -47.80664062 2.11175537 C-31.86386013 0.43736396 -16.02378497 -0.02318711 0 0 Z " fill="#000000" transform="translate(539.25,52.625)"/>
<path d="M0 0 C1.22714722 -0.00045319 2.45429443 -0.00090637 3.71862793 -0.00137329 C20.55113656 0.01673643 37.24208206 0.57850922 54 2.1875 C55.31103699 2.31152191 55.31103699 2.31152191 56.64855957 2.43804932 C65.62977917 3.31375993 74.33818827 4.49011362 83.09545898 6.75292969 C85.61300831 7.3428971 87.98639106 7.64360751 90.5625 7.8125 C96.95007653 8.34986755 103.03627757 10.08008763 109.21142578 11.71533203 C111.99814077 12.43948128 114.79284611 13.1252646 117.58984375 13.80859375 C130.78637673 17.07346599 143.75561434 20.82293341 156.6875 25 C157.40307068 25.2297049 158.11864136 25.45940979 158.855896 25.69607544 C172.37098931 30.05034227 185.19812159 35.49812014 198.0625 41.5 C206.25540813 45.35189871 206.25540813 45.35189871 214.54296875 48.9921875 C221.42285448 51.95866685 227.96449777 55.53574477 234.5 59.1875 C235.28060791 59.6218335 236.06121582 60.05616699 236.86547852 60.50366211 C242.44859574 63.62007439 247.97642057 66.81695322 253.46484375 70.09765625 C255.79612132 71.49418039 255.79612132 71.49418039 258.75 72.375 C258.75 73.035 258.75 73.695 258.75 74.375 C259.47582275 74.64127197 260.20164551 74.90754395 260.94946289 75.18188477 C263.75011636 76.37504957 266.04391703 77.75614994 268.55859375 79.46484375 C269.46359619 80.07884033 270.36859863 80.69283691 271.30102539 81.32543945 C272.25356201 81.98116943 273.20609863 82.63689941 274.1875 83.3125 C275.17161865 83.98692139 276.1557373 84.66134277 277.16967773 85.35620117 C284.39261825 90.3461336 291.34345504 95.57527756 298.15869141 101.10302734 C300.35115775 102.85552039 302.58985531 104.54380697 304.82910156 106.23583984 C310.18385331 110.28711169 315.30511313 114.51303099 320.23828125 119.07421875 C322.26437951 120.93016257 324.31802685 122.72925912 326.39941406 124.52172852 C330.72063429 128.29947986 334.81031673 132.27384014 338.87109375 136.328125 C339.61529068 137.06899353 340.35948761 137.80986206 341.12623596 138.57318115 C342.68971072 140.13162609 344.25186309 141.69139872 345.81274414 143.25244141 C348.17248384 145.60999773 350.54010929 147.95943286 352.90820312 150.30859375 C359.96835315 157.34297052 366.89807474 164.31822477 373.03857422 172.18383789 C374.76071034 174.38871259 376.57114701 176.47906766 378.4375 178.5625 C387.75 189.11521612 387.75 189.11521612 387.75 192.375 C388.41 192.375 389.07 192.375 389.75 192.375 C390.9765625 193.95703125 390.9765625 193.95703125 392.375 196.1875 C394.62130434 199.67874409 396.95562531 203.04714749 399.4375 206.375 C410.35051629 221.2678111 419.69343242 237.24083452 428.63720703 253.36962891 C429.64767769 255.19060434 430.66523992 257.00764011 431.68359375 258.82421875 C442.77016231 279.03819095 451.95938904 300.31315221 459.57421875 322.05859375 C460.41121914 324.41943537 461.28507065 326.76735005 462.18359375 329.10546875 C464.05826493 334.08378204 465.591417 339.1581454 467.125 344.25 C467.42954102 345.2594165 467.73408203 346.26883301 468.04785156 347.30883789 C468.95458541 350.32913879 469.8542395 353.35142791 470.75 356.375 C471.00104492 357.22078613 471.25208984 358.06657227 471.51074219 358.93798828 C474.20926823 368.10432046 476.41896448 377.21714333 478.06640625 386.62890625 C478.71098055 390.16117343 479.47799652 393.63337101 480.3125 397.125 C482.54289752 406.60710881 483.92620743 415.93359445 484.50390625 425.66015625 C484.65390885 428.46887971 484.65390885 428.46887971 485.75 431.375 C488.28020799 448.15455131 488.06661823 465.26574483 488.01074219 482.19042969 C487.99934854 485.67586882 488.00612446 489.16100227 488.01763248 492.64643097 C488.06092668 508.16019234 487.6720167 523.52889872 486.0088501 538.96765137 C485.65949718 542.21669121 485.34588683 545.46895111 485.03050232 548.72143555 C484.29930348 555.94467898 483.16630475 562.99985566 481.6328125 570.1015625 C480.9543687 573.27218686 480.39303853 576.44903717 479.8671875 579.6484375 C477.45161466 593.8848238 473.88135315 607.59842717 469.8125 621.4375 C469.55969269 622.30082947 469.30688538 623.16415894 469.04641724 624.0536499 C464.18464827 640.57993136 458.63349822 656.71986894 452 672.625 C451.74399017 673.24063812 451.48798035 673.85627625 451.22421265 674.49057007 C444.3140301 691.07825726 436.72389122 707.15191808 427.70800781 722.70117188 C426.37875216 725.02364301 425.12862305 727.38602511 423.875 729.75 C415.80310785 744.56689793 406.46343789 758.59540335 396.75 772.375 C396.21713379 773.13167969 395.68426758 773.88835938 395.13525391 774.66796875 C393.62108684 776.80693388 392.0952311 778.93680892 390.5625 781.0625 C390.10488281 781.70469482 389.64726563 782.34688965 389.17578125 783.00854492 C388.08421413 784.50216982 386.92357271 785.94490867 385.75 787.375 C385.09 787.375 384.43 787.375 383.75 787.375 C383.50636719 788.10074219 383.26273438 788.82648437 383.01171875 789.57421875 C381.59485241 792.71939883 379.91884189 794.67704281 377.5625 797.1875 C376.35013672 798.49654297 376.35013672 798.49654297 375.11328125 799.83203125 C374.33339844 800.67121094 373.55351563 801.51039063 372.75 802.375 C371.57714939 803.70289696 370.40992079 805.03579403 369.25 806.375 C365.84782412 810.28237137 362.37636456 814.12487991 358.8984375 817.96484375 C356.98806161 820.10793815 355.14355335 822.28933803 353.3125 824.5 C352.466875 825.44875 351.62125 826.3975 350.75 827.375 C350.09 827.375 349.43 827.375 348.75 827.375 C348.75 828.035 348.75 828.695 348.75 829.375 C348.09 829.375 347.43 829.375 346.75 829.375 C346.75 830.035 346.75 830.695 346.75 831.375 C346.09 831.375 345.43 831.375 344.75 831.375 C344.09 832.695 343.43 834.015 342.75 835.375 C342.09 835.375 341.43 835.375 340.75 835.375 C340.49476563 835.96796875 340.23953125 836.5609375 339.9765625 837.171875 C338.62376259 839.6017449 337.26658724 840.86736266 335.125 842.625 C332.20102684 845.09062061 329.47128404 847.62563614 326.8125 850.375 C323.50910208 853.72321146 320.03367222 856.57908257 316.28125 859.40625 C313.85450287 861.29371999 311.52111863 863.26673922 309.19555664 865.27685547 C302.52907439 871.03540449 295.5859869 876.20795754 288.36083984 881.24023438 C286.02131389 882.88832723 283.73303563 884.60387136 281.4375 886.3125 C267.91760063 896.17242661 253.50591689 904.77490173 238.9050293 912.91845703 C235.6841453 914.71547807 232.48508374 916.53214351 229.3125 918.4140625 C219.4721424 924.23936853 209.22917598 928.83037112 198.75 933.375 C196.95442013 934.16144246 195.15884724 934.94790085 193.36328125 935.734375 C182.93863946 940.27539063 172.46653225 944.57235952 161.75 948.375 C160.78537842 948.72377197 160.78537842 948.72377197 159.80126953 949.07958984 C130.32113617 959.67503261 96.97871117 969.09085285 65.625 970.9375 C62.36162164 971.13298354 59.8586936 971.3387688 56.75 972.375 C54.14249498 972.57973322 51.54868909 972.747163 48.9375 972.875 C43.41328692 973.14117842 43.41328692 973.14117842 37.93669128 973.88449097 C34.50272213 974.41306206 31.25650417 974.50209778 27.7824707 974.50439453 C27.11341705 974.50614685 26.4443634 974.50789917 25.7550354 974.50970459 C23.56192366 974.51407631 21.36889369 974.51120272 19.17578125 974.5078125 C17.64454635 974.50848665 16.11331156 974.5094576 14.58207703 974.51071167 C11.38210017 974.51218209 8.18215132 974.51005429 4.98217773 974.50537109 C0.87975252 974.49965968 -3.22260747 974.50296586 -7.32503033 974.50894356 C-10.48283888 974.51255452 -13.64063192 974.51140836 -16.79844093 974.50881577 C-18.31152161 974.50814873 -19.82460369 974.50896713 -21.33768272 974.51129532 C-23.44871134 974.51383218 -25.55963361 974.5099673 -27.6706543 974.50439453 C-28.87167282 974.50359894 -30.07269135 974.50280334 -31.31010437 974.50198364 C-34.25 974.375 -34.25 974.375 -37.25 973.375 C-39.32295863 973.13452886 -41.40093962 972.9364828 -43.48046875 972.76171875 C-44.74544189 972.65061768 -46.01041504 972.5395166 -47.3137207 972.42504883 C-47.98537262 972.3665274 -48.65702454 972.30800598 -49.34902954 972.24771118 C-86.73599032 968.93213487 -122.72574846 960.29843281 -158.25 948.375 C-159.28044434 948.02969238 -160.31088867 947.68438477 -161.37255859 947.32861328 C-198.17700467 934.83239355 -233.98315915 917.04838621 -266.25 895.375 C-266.98460449 894.88386719 -267.71920898 894.39273438 -268.47607422 893.88671875 C-278.67567997 887.04955184 -288.65691917 880.04430016 -298.25 872.375 C-299.15621094 871.65054688 -300.06242188 870.92609375 -300.99609375 870.1796875 C-307.99088502 864.51482026 -314.81471316 858.65016262 -321.61962891 852.75976562 C-322.73268958 851.81438075 -323.86086571 850.88657991 -325.00146484 849.97460938 C-326.45053378 848.81467491 -327.85481484 847.59921693 -329.25 846.375 C-329.25 845.715 -329.25 845.055 -329.25 844.375 C-330.05872559 844.05305664 -330.05872559 844.05305664 -330.88378906 843.72460938 C-334.10069832 841.88978949 -336.52139255 839.38914382 -339.109375 836.78125 C-339.65861633 836.23392212 -340.20785767 835.68659424 -340.77374268 835.12268066 C-341.92925859 833.9685222 -343.08226685 832.81184833 -344.23291016 831.65283203 C-346.000735 829.87426054 -347.7790213 828.10665237 -349.55859375 826.33984375 C-350.68032971 825.21678692 -351.80144551 824.09311024 -352.921875 822.96875 C-353.45617126 822.4385022 -353.99046753 821.90825439 -354.54095459 821.36193848 C-358.25 817.60493854 -358.25 817.60493854 -358.25 815.375 C-358.91 815.375 -359.57 815.375 -360.25 815.375 C-360.25 814.715 -360.25 814.055 -360.25 813.375 C-360.91 813.375 -361.57 813.375 -362.25 813.375 C-363.84375 811.609375 -363.84375 811.609375 -365.75 809.125 C-368.80443289 805.20496067 -371.91919681 801.3599104 -375.125 797.5625 C-380.35943385 791.31317592 -385.37129385 784.90519898 -390.25 778.375 C-390.99854248 777.37339844 -390.99854248 777.37339844 -391.76220703 776.3515625 C-417.31374428 741.97856752 -439.63890349 703.12749965 -454.03125 662.71484375 C-454.82911546 660.52838553 -455.69731084 658.36603764 -456.640625 656.23828125 C-464.7220378 637.64536244 -469.56642758 617.02846906 -474.25 597.375 C-474.51941406 596.24626465 -474.78882813 595.1175293 -475.06640625 593.95458984 C-479.30746092 575.89681418 -482.19595437 557.80492438 -484.25 539.375 C-484.36859375 538.37049805 -484.4871875 537.36599609 -484.609375 536.33105469 C-488.63137344 501.15053859 -487.61101681 464.47722922 -483.25 429.375 C-483.10546387 428.19583008 -482.96092773 427.01666016 -482.81201172 425.80175781 C-473.05559007 348.7660033 -444.64993704 274.14035156 -400.25 210.375 C-399.76450684 209.67697266 -399.27901367 208.97894531 -398.77880859 208.25976562 C-391.25598625 197.50813179 -383.24420807 187.27611446 -374.80126953 177.23486328 C-373.40905452 175.56569521 -372.039709 173.88212404 -370.68359375 172.18359375 C-366.50146954 166.95412018 -362.14363511 162.14133318 -357.34765625 157.46875 C-355.48068738 155.6052578 -353.76419398 153.70053147 -352.0625 151.6875 C-348.52937911 147.57668873 -344.74926729 143.7253333 -340.9375 139.875 C-340.31399658 139.23860596 -339.69049316 138.60221191 -339.0480957 137.9465332 C-338.45859131 137.35573975 -337.86908691 136.76494629 -337.26171875 136.15625 C-336.73022217 135.62064453 -336.19872559 135.08503906 -335.65112305 134.53320312 C-334.25 133.375 -334.25 133.375 -332.25 133.375 C-331.92 132.385 -331.59 131.395 -331.25 130.375 C-329.9296875 129.0078125 -329.9296875 129.0078125 -328.125 127.5 C-327.403125 126.88898438 -326.68125 126.27796875 -325.9375 125.6484375 C-325.050625 124.89820313 -324.16375 124.14796875 -323.25 123.375 C-322.12320403 122.39007172 -320.99834181 121.40292854 -319.875 120.4140625 C-295.5489473 99.03711166 -269.1697484 80.73075966 -241.25 64.375 C-240.54198242 63.95831055 -239.83396484 63.54162109 -239.10449219 63.11230469 C-229.96969464 57.76047119 -220.62513443 53.05353733 -211.015625 48.61328125 C-207.42602464 46.95152114 -203.89715143 45.19092844 -200.37109375 43.3984375 C-154.4573278 20.35436269 -100.98653986 7.75097164 -50.25 2.375 C-49.44369141 2.28812927 -48.63738281 2.20125854 -47.80664062 2.11175537 C-31.86386013 0.43736396 -16.02378497 -0.02318711 0 0 Z M-112.25 26.375 C-113.48266602 26.66793945 -113.48266602 26.66793945 -114.74023438 26.96679688 C-139.29393699 32.80895643 -163.1956958 41.16411145 -186.25 51.375 C-187.99083814 52.13422299 -189.73172247 52.89334009 -191.47265625 53.65234375 C-231.46322621 71.23370715 -269.68932058 94.16699591 -302.64794922 122.98339844 C-304.38956443 124.49623092 -306.14798791 125.98773076 -307.91015625 127.4765625 C-313.3587925 132.08804407 -318.736259 136.67231344 -323.6953125 141.81640625 C-325.39162726 143.5169831 -327.17306297 145.065867 -329 146.625 C-336.33717718 152.96489096 -343.16905335 159.92639515 -349.45703125 167.3046875 C-351.58146824 169.7577411 -353.79188637 172.12203147 -356 174.5 C-361.27711068 180.28805634 -366.07862401 186.38533965 -370.85888672 192.58544922 C-372.22467529 194.34242188 -373.60993324 196.0817393 -375.00390625 197.81640625 C-428.7723461 264.87398753 -461.89373092 350.20014976 -471.25 435.375 C-471.35296387 436.23947754 -471.45592773 437.10395508 -471.56201172 437.99462891 C-477.29373272 487.71481851 -473.22588469 538.50689 -463.25 587.375 C-462.92931576 589.04785708 -462.61005731 590.72098889 -462.29296875 592.39453125 C-459.47494867 606.6900454 -454.75276976 620.54151192 -450.25 634.375 C-449.91452148 635.40882813 -449.57904297 636.44265625 -449.23339844 637.5078125 C-437.90586555 672.07810616 -422.34070353 705.42054007 -403.25 736.375 C-402.7643457 737.16293945 -402.27869141 737.95087891 -401.77832031 738.76269531 C-384.13137744 767.15340327 -362.84553043 792.63867816 -340.125 817.0625 C-339.55088379 817.6805249 -338.97676758 818.2985498 -338.38525391 818.93530273 C-332.68051268 825.04425909 -326.86693935 830.92367787 -320.52734375 836.375 C-318.35243029 838.28504407 -316.23538414 840.24834243 -314.12304688 842.22705078 C-307.75525456 848.16935502 -301.09240448 853.60415994 -294.17871094 858.89648438 C-292.12601866 860.4700419 -290.08232071 862.05484047 -288.0390625 863.640625 C-220.86400709 915.61708759 -140.72076822 947.97496845 -56.5625 958.6875 C-55.32411377 958.84694092 -54.08572754 959.00638184 -52.80981445 959.1706543 C-34.62230975 961.34844612 -16.36005617 961.58080976 1.9375 961.5625 C2.96703796 961.56222809 3.99657593 961.56195618 5.05731201 961.56167603 C20.37415015 961.54311106 35.52976921 961.25361134 50.75 959.375 C51.59852539 959.27316406 52.44705078 959.17132812 53.32128906 959.06640625 C59.48717322 958.30477969 65.61747669 957.36702583 71.75 956.375 C72.84828125 956.20097656 73.9465625 956.02695312 75.078125 955.84765625 C146.14618715 944.49868157 215.16412837 917.50416611 273.75 875.375 C274.51296387 874.8284375 275.27592773 874.281875 276.06201172 873.71875 C285.27176768 867.09733267 294.2680328 860.33176973 302.83203125 852.890625 C305.65017333 850.46106208 308.52912367 848.13271097 311.4375 845.8125 C316.06686032 842.05114474 320.24483504 837.9827755 324.41015625 833.71875 C326.4984622 831.62695773 328.63258997 829.67331464 330.875 827.75 C336.97520868 822.50897564 342.47527286 816.79163435 347.7109375 810.6953125 C349.7852334 808.33490682 351.91409123 806.03612559 354.05908203 803.74023438 C359.89617911 797.4863318 365.43557228 791.08393356 370.75 784.375 C371.76163679 783.12883971 372.77336177 781.88275101 373.78515625 780.63671875 C387.94147635 763.01083441 400.60854789 743.94972871 411.68945312 724.24755859 C412.73656808 722.39871611 413.80985593 720.56761579 414.890625 718.73828125 C436.92025868 681.0983108 452.60572151 638.68000633 462.75 596.375 C462.99387451 595.38781982 463.23774902 594.40063965 463.48901367 593.38354492 C465.55675829 584.79643185 466.99644523 576.16245568 468.3125 567.4375 C468.52235838 566.07350178 468.73264378 564.70956918 468.94335938 563.34570312 C483.34144744 469.78618073 471.21824816 376.15989893 383.32666016 206.47900391 C379.13522769 200.88566774 374.67483762 195.50753843 370.20605469 190.13525391 C368.17138879 187.67550522 366.18426675 185.17805203 364.1875 182.6875 C359.4517695 176.90419474 354.37337325 171.46214427 349.26855469 166.00683594 C347.29467699 163.88571077 345.34589769 161.74239556 343.3972168 159.59814453 C336.91588101 152.47467745 330.31350013 145.62732693 323.00390625 139.34765625 C320.79071754 137.41063667 318.62856103 135.42473195 316.47314453 133.42382812 C310.42566805 127.81669254 304.21121783 122.50525535 297.75 117.375 C297.1401123 116.88193359 296.53022461 116.38886719 295.90185547 115.88085938 C283.07610582 105.52003402 269.59450844 96.31733673 255.75 87.375 C255.10224609 86.95524902 254.45449219 86.53549805 253.78710938 86.10302734 C250.16097019 83.76840452 246.47364672 81.5491639 242.75 79.375 C241.98026855 78.92125 241.21053711 78.4675 240.41748047 78 C207.06530864 58.42440373 172.07211909 43.7958311 135.20214844 32.43969727 C132.91568776 31.73451657 130.63239281 31.01898155 128.35253906 30.29272461 C121.49570258 28.12429307 114.67655879 26.34195224 107.625 24.9375 C106.6136499 24.73213623 105.6022998 24.52677246 104.56030273 24.31518555 C101.29225093 23.65758215 98.02173935 23.01399296 94.75 22.375 C93.60966309 22.15134766 92.46932617 21.92769531 91.29443359 21.69726562 C77.84193518 19.07842756 64.42358241 16.47122657 50.75 15.375 C49.66203125 15.28621582 48.5740625 15.19743164 47.453125 15.10595703 C-6.32122679 10.90129055 -59.76295955 13.46009423 -112.25 26.375 Z " fill="#F8F7F6" transform="translate(539.25,52.625)"/>
<path d="M0 0 C7.33323269 5.88552808 11.55242314 12.39227246 13.1171875 21.69921875 C14.06097497 33.22580344 12.55688849 43.08585527 4.9921875 52.13671875 C-4.39384662 61.67561987 -16.96690397 64.69652035 -30.07421875 65.09765625 C-32.53124992 65.10549367 -34.9883799 65.09758103 -37.4453125 65.07421875 C-38.66927734 65.08582031 -39.89324219 65.09742188 -41.15429688 65.109375 C-54.28588459 65.06744337 -66.72711142 62.61185758 -76.984375 53.91796875 C-84.97704947 45.61919185 -86.5627017 35.88945654 -86.49194336 24.76733398 C-86.10884916 15.48537697 -82.91376208 8.25852876 -76.1953125 1.76171875 C-57.06280314 -13.1231557 -20.09162704 -13.42824231 0 0 Z " fill="#FCFCFC" transform="translate(474.8828125,508.30078125)"/>
<path d="M0 0 C27.06 0 54.12 0 82 0 C82 5.94 82 11.88 82 18 C64.84 18 47.68 18 30 18 C30 21.63 30 25.26 30 29 C44.19 29 58.38 29 73 29 C73 33.29 73 37.58 73 42 C58.81 42 44.62 42 30 42 C30 45.63 30 49.26 30 53 C48.48 53 66.96 53 86 53 C86 58.94 86 64.88 86 71 C57.62 71 29.24 71 0 71 C0 47.57 0 24.14 0 0 Z " fill="#FAFAFA" transform="translate(606,501)"/>
<path d="M0 0 C5.52406585 4.41925268 10.18611443 9.60678944 12.8125 16.25 C12.8125 17.24 12.8125 18.23 12.8125 19.25 C8.32854697 19.37379245 3.84550398 19.46442571 -0.63964844 19.5246582 C-2.1645643 19.54977103 -3.68936015 19.58386883 -5.21386719 19.62719727 C-7.40850426 19.68800044 -9.6015481 19.71623887 -11.796875 19.73828125 C-13.11655273 19.76446533 -14.43623047 19.79064941 -15.79589844 19.81762695 C-19.1875 19.25 -19.1875 19.25 -21.47363281 16.80029297 C-22.03920898 15.95869629 -22.60478516 15.11709961 -23.1875 14.25 C-27.5235105 12.25663962 -31.44904575 11.95308702 -36.1875 11.9375 C-37.363125 11.92074219 -38.53875 11.90398438 -39.75 11.88671875 C-44.84014555 12.42465459 -48.07978659 14.02253379 -51.5 17.8125 C-55.10517883 23.01998053 -54.63332396 28.05709989 -54.1875 34.25 C-52.35900905 39.63923649 -49.26533589 42.71108206 -44.1875 45.25 C-41.58962471 45.40144564 -39.03641179 45.48136981 -36.4375 45.5 C-35.73367188 45.520625 -35.02984375 45.54125 -34.3046875 45.5625 C-29.52099375 45.5980665 -26.3283285 44.87646836 -22.1875 42.25 C-21.33478516 41.21842773 -21.33478516 41.21842773 -20.46484375 40.16601562 C-17.27807767 37.48486852 -15.13506803 37.79184315 -11.015625 37.859375 C-9.9919986 37.86786469 -9.9919986 37.86786469 -8.94769287 37.87652588 C-6.77690238 37.89884364 -4.60778794 37.94902492 -2.4375 38 C-0.9622635 38.02007124 0.51299899 38.03832093 1.98828125 38.0546875 C5.59689501 38.0986912 9.20453381 38.16768417 12.8125 38.25 C9.88130729 48.02195211 5.33882681 54.55184196 -3.55078125 59.9296875 C-14.19184959 65.25810394 -24.67851589 65.6335308 -36.375 65.6875 C-38.28091919 65.70272705 -38.28091919 65.70272705 -40.2253418 65.71826172 C-52.00879529 65.60947488 -62.23536255 63.74767652 -72.1875 57.25 C-73.074375 56.693125 -73.96125 56.13625 -74.875 55.5625 C-81.61252914 48.82497086 -85.38121226 40.25060207 -85.56811523 30.77880859 C-85.54140475 19.64169614 -83.99546978 12.42478122 -76.1484375 4.09765625 C-57.12834269 -13.82366815 -21.82316436 -11.98134514 0 0 Z " fill="#FBFBFB" transform="translate(581.1875,507.75)"/>
<path d="M0 0 C4.41067524 1.92542939 7.25191111 4.84078344 9.5546875 9.046875 C11.45837746 14.27765612 11.45837746 19.49578138 9.5546875 24.7265625 C7.25202265 28.93245033 4.41124406 31.87125462 -0.01953125 33.76171875 C-6.77884909 35.40282778 -15.39673702 36.01647524 -21.78125 32.82421875 C-25.9073842 29.24823578 -27.85793291 25.59417001 -29.59375 20.38671875 C-29.96198488 14.77113686 -29.83266406 11.19284929 -26.59375 6.38671875 C-18.89772686 -1.22023005 -10.59527977 -2.50520922 0 0 Z " fill="#030303" transform="translate(447.59375,519.61328125)"/>
<path d="M0 0 C2.33146795 3.49720193 2.34304823 5.3537623 2.5625 9.5 C2.7528993 12.95050166 2.90578378 15.71735134 4 19 C6.70214423 36.73179648 6.28087366 54.83829941 6.19561768 72.72265625 C6.18468498 75.62138261 6.18515285 78.52006263 6.18575573 81.41880608 C6.18548272 84.24656473 6.17998411 87.07429368 6.17275429 89.90204239 C6.16810447 91.87218114 6.16630763 93.84232598 6.16459656 95.81246948 C6.13033716 102.29082147 5.86820414 108.57832047 5 115 C4.34 114.67 3.68 114.34 3 114 C3.03029297 113.07888428 3.06058594 112.15776855 3.09179688 111.20874023 C3.20554819 107.71416859 3.31708873 104.21953963 3.42724609 100.72485352 C3.47489538 99.22677926 3.52336688 97.72873087 3.57275391 96.23071289 C4.40917218 70.80530443 4.24856208 45.41104263 1.01635742 20.14550781 C0.16804642 13.38626634 -0.17483447 6.81178754 0 0 Z " fill="#D1CECC" transform="translate(1021,465)"/>
<path d="M0 0 C-16.41232719 8.9818706 -38.47279629 12.35318234 -56.5625 16.25 C-57.70299805 16.49613037 -58.84349609 16.74226074 -60.01855469 16.99584961 C-70.63235263 19.22980577 -81.11851403 21.36886393 -92 21 C-92 20.34 -92 19.68 -92 19 C-91.31711914 18.89977539 -90.63423828 18.79955078 -89.93066406 18.69628906 C-78.06077583 16.94264728 -66.20687302 15.15938203 -54.4375 12.8125 C-53.59413086 12.64588867 -52.75076172 12.47927734 -51.88183594 12.30761719 C-48.13132744 11.81526815 -48.13132744 11.81526815 -45 10 C-43.60154861 9.68338729 -42.19277662 9.41215325 -40.78125 9.16015625 C-34.26519102 7.90822825 -27.89907188 6.18106734 -21.5 4.4375 C-20.32179688 4.12103516 -19.14359375 3.80457031 -17.9296875 3.47851562 C-4.75389504 -0.08803509 -4.75389504 -0.08803509 0 0 Z " fill="#DAC7C6" transform="translate(695,1002)"/>
<path d="M0 0 C9.64699111 11.80262407 17.41395187 25.2790664 24 39 C22.02 39.495 22.02 39.495 20 40 C20 38.68 20 37.36 20 36 C19.34 36 18.68 36 18 36 C17.81824219 35.36191406 17.63648438 34.72382813 17.44921875 34.06640625 C17.19785156 33.24011719 16.94648437 32.41382813 16.6875 31.5625 C16.32205078 30.32693359 16.32205078 30.32693359 15.94921875 29.06640625 C15.63597656 28.38449219 15.32273437 27.70257813 15 27 C14.01 26.67 13.02 26.34 12 26 C11.67 24.35 11.34 22.7 11 21 C10.01 20.67 9.02 20.34 8 20 C7.5049981 18.05299254 7.01844324 16.1027597 6.60546875 14.13671875 C5.71547356 10.99589703 3.88091911 8.63328675 2 6 C2 5.34 2 4.68 2 4 C1.34 4 0.68 4 0 4 C0 2.68 0 1.36 0 0 Z " fill="#E7CCC6" transform="translate(944,268)"/>
<path d="M0 0 C-3.6434976 2.4289984 -6.58517338 2.40536456 -10.8125 2.5625 C-16.35791882 2.78941392 -16.35791882 2.78941392 -21.85668945 3.50927734 C-25.05457513 4.00852008 -28.03910871 4.11366778 -31.2734375 4.09765625 C-32.42714844 4.09443359 -33.58085938 4.09121094 -34.76953125 4.08789062 C-35.95933594 4.07951172 -37.14914062 4.07113281 -38.375 4.0625 C-39.58800781 4.05798828 -40.80101562 4.05347656 -42.05078125 4.04882812 C-45.03390507 4.03708354 -48.01692679 4.0206584 -51 4 C-48.24173876 1.24173876 -45.60128109 1.54771006 -41.89453125 1.3671875 C-41.17827072 1.32562531 -40.46201019 1.28406311 -39.7240448 1.24124146 C-38.19851759 1.15461155 -36.67272586 1.0725399 -35.14672852 0.99462891 C-32.8660006 0.8777419 -30.58644383 0.74687608 -28.30664062 0.61328125 C-18.86103451 0.08164521 -9.46041636 -0.10961034 0 0 Z " fill="#D9B6B6" transform="translate(599,1023)"/>
<path d="M0 0 C3.92165552 7.47302598 5.40313836 15.63158589 6.8659668 23.87475586 C7.86234828 29.45356778 9.14133631 34.93453449 10.546875 40.42578125 C11 43 11 43 10 46 C9.34 45.67 8.68 45.34 8 45 C7.37744141 42.76953125 7.37744141 42.76953125 6.8515625 39.8125 C6.65256348 38.72839844 6.45356445 37.64429688 6.24853516 36.52734375 C6.04276855 35.36332031 5.83700195 34.19929688 5.625 33 C4.02091382 24.2298724 2.3208413 15.53393205 0.08056641 6.90234375 C-1.10230667 2.20461335 -1.10230667 2.20461335 0 0 Z " fill="#DEC8C8" transform="translate(1010,413)"/>
<path d="M0 0 C2.33146795 3.49720193 2.34304823 5.3537623 2.5625 9.5 C2.7528993 12.95050166 2.90578378 15.71735134 4 19 C4.21428697 20.67679111 4.38767731 22.35898618 4.53515625 24.04296875 C4.62216797 25.03490234 4.70917969 26.02683594 4.79882812 27.04882812 C4.88583984 28.08458984 4.97285156 29.12035156 5.0625 30.1875 C5.15337891 31.20392578 5.24425781 32.22035156 5.33789062 33.26757812 C5.81883789 38.86898652 6.10098528 44.37848626 6 50 C3.61766351 46.42649526 3.36445801 43.37343807 2.9296875 39.21875 C2.80075607 38.06566345 2.80075607 38.06566345 2.66921997 36.88928223 C2.48888858 35.25897919 2.3126314 33.62822113 2.14013672 31.99707031 C1.87880229 29.53581016 1.60259296 27.07657177 1.32421875 24.6171875 C0.41609764 16.38957265 -0.31128958 8.29183201 0 0 Z " fill="#DEAEAD" transform="translate(1021,465)"/>
<path d="M0 0 C-3.80472004 2.07699781 -6.77428359 2.32132581 -11.125 2.5 C-15.50441774 2.68209637 -19.48994712 3.06241016 -23.765625 4.0234375 C-29.4121903 5.21775787 -34.87420058 5.22481361 -40.625 5.125 C-42.13126953 5.11146484 -42.13126953 5.11146484 -43.66796875 5.09765625 C-46.11224126 5.07437746 -48.55598408 5.04168487 -51 5 C-51 4.67 -51 4.34 -51 4 C-45.50552638 3.42312821 -40.01034193 2.85376901 -34.5144043 2.29101562 C-32.64928784 2.09901124 -30.78437238 1.90504295 -28.91967773 1.70898438 C-9.03989442 -0.37857926 -9.03989442 -0.37857926 0 0 Z " fill="#E6B6B6" transform="translate(523,53)"/>
<path d="M0 0 C0.66 0.33 1.32 0.66 2 1 C-5.32421875 11.25390625 -5.32421875 11.25390625 -6.65771484 13.10986328 C-7.57806579 14.40585401 -8.48399094 15.71217525 -9.37744141 17.02685547 C-10.53767972 18.71799975 -11.76374912 20.36359978 -13 22 C-13.66 22 -14.32 22 -15 22 C-15.268125 22.78375 -15.53625 23.5675 -15.8125 24.375 C-17 27 -17 27 -20 29 C-19.42655063 26.13275314 -19.1385485 25.1385485 -17 23 C-16.35232207 20.42938689 -16.35232207 20.42938689 -16 18 C-15.01 18 -14.02 18 -13 18 C-11.0549 15.08235 -10.54723683 13.37462715 -10 10 C-8.68 10 -7.36 10 -6 10 C-5.71125 9.4225 -5.4225 8.845 -5.125 8.25 C-4.08333333 6.16666667 -3.04166667 4.08333333 -2 2 C-1.34 2 -0.68 2 0 2 C0 1.34 0 0.68 0 0 Z " fill="#E1C1BF" transform="translate(938,818)"/>
<path d="M0 0 C0.66 0.33 1.32 0.66 2 1 C1.45730469 1.36351562 0.91460937 1.72703125 0.35546875 2.1015625 C-4.40890264 5.39191391 -4.40890264 5.39191391 -7.5 10.1875 C-9.4481772 13.84033225 -11.12141226 14.04360801 -14.92578125 15.2109375 C-18.24522914 16.47370299 -20.41094312 18.60512239 -23 21 C-23.66 20.67 -24.32 20.34 -25 20 C-16.92185305 12.92425084 -8.8322808 6.12852137 0 0 Z " fill="#EAD3D2" transform="translate(249,149)"/>
<path d="M0 0 C-3.41004053 2.27336035 -6.92675923 3.55262173 -10.75 4.9375 C-14.81910754 6.42166143 -18.8622218 7.91298174 -22.83203125 9.6484375 C-25.61003584 10.83362811 -28.02834059 11.54974857 -31 12 C-31 11.34 -31 10.68 -31 10 C-30.28344238 9.7326001 -29.56688477 9.4652002 -28.82861328 9.18969727 C-25.59364882 7.98177067 -22.35931782 6.77215689 -19.125 5.5625 C-17.99707031 5.14162109 -16.86914062 4.72074219 -15.70703125 4.28710938 C-14.63066406 3.88427734 -13.55429687 3.48144531 -12.4453125 3.06640625 C-11.45031738 2.69459229 -10.45532227 2.32277832 -9.43017578 1.93969727 C-5.89633977 0.57323807 -3.85133905 -0.10135103 0 0 Z " fill="#DDB2AE" transform="translate(727,990)"/>
<path d="M0 0 C6.71918462 0.84757539 11.60154411 5.18973501 17 9 C18.26650391 9.88751953 18.26650391 9.88751953 19.55859375 10.79296875 C23.61737401 13.72310423 23.61737401 13.72310423 25 15 C25 15.66 25 16.32 25 17 C22 17 22 17 19.5 14.5625 C18.2625 13.2940625 18.2625 13.2940625 17 12 C16.01 11.67 15.02 11.34 14 11 C14 10.34 14 9.68 14 9 C13.113125 8.773125 12.22625 8.54625 11.3125 8.3125 C7.5358773 6.81610233 5.73346231 4.95509439 3 2 C2.01 1.34 1.02 0.68 0 0 Z " fill="#E7BEBB" transform="translate(808,135)"/>
<path d="M0 0 C11.33711703 -0.36769028 22.06832176 0.99914715 33 4 C33 4.33 33 4.66 33 5 C8.46230441 3.46230441 8.46230441 3.46230441 7 2 C4.67182036 1.63239269 2.3381615 1.29758419 0 1 C0 0.67 0 0.34 0 0 Z " fill="#E8CBCB" transform="translate(610,59)"/>
<path d="M0 0 C0.93423645 3.01031744 1.04449911 3.86650268 0 7 C0.66 7 1.32 7 2 7 C2 7.66 2 8.32 2 9 C0.02 9.99 0.02 9.99 -2 11 C-1.938125 11.721875 -1.87625 12.44375 -1.8125 13.1875 C-2.03927331 16.5890997 -2.96787379 18.29049839 -5 21 C-5.99 21.33 -6.98 21.66 -8 22 C-5.92957946 14.39162534 -3.14169523 7.2271408 0 0 Z " fill="#E7D9D9" transform="translate(90,353)"/>
<path d="M0 0 C0.33 0.99 0.66 1.98 1 3 C0.0479279 4.00596297 -0.91187346 5.00461563 -1.875 6 C-2.40867188 6.556875 -2.94234375 7.11375 -3.4921875 7.6875 C-5 9 -5 9 -7 9 C-7 10.32 -7 11.64 -7 13 C-7.99 13 -8.98 13 -10 13 C-10.33 13.99 -10.66 14.98 -11 16 C-12.4375 17.6875 -12.4375 17.6875 -14 19 C-14.66 19 -15.32 19 -16 19 C-14.62736637 15.94839391 -13.04043427 13.75173068 -10.7421875 11.328125 C-10.11699219 10.66425781 -9.49179688 10.00039062 -8.84765625 9.31640625 C-8.19667969 8.63449219 -7.54570312 7.95257813 -6.875 7.25 C-6.21628906 6.55261719 -5.55757812 5.85523438 -4.87890625 5.13671875 C-3.25672226 3.42049511 -1.63034621 1.70846565 0 0 Z " fill="#E2F2F1" transform="translate(183,209)"/>
<path d="M0 0 C-6.91265731 4.60843821 -16.895131 4.27474132 -25 4 C-25 3.34 -25 2.68 -25 2 C-16.61090382 0.7472283 -8.50262969 -0.36011137 0 0 Z " fill="#DDB1AD" transform="translate(628,1019)"/>
<path d="M0 0 C1.70884005 1.62339805 3.37446717 3.29319053 5 5 C5 5.66 5 6.32 5 7 C5.66 7 6.32 7 7 7 C8.4375 8.828125 8.4375 8.828125 10 11.25 C10.515625 12.03890625 11.03125 12.8278125 11.5625 13.640625 C12.82983586 15.72070886 13.9519458 17.80311715 15 20 C14.34 20 13.68 20 13 20 C11.78125 18.5390625 11.78125 18.5390625 10.5 16.625 C9.07753774 14.51732726 7.80845027 12.80845027 6 11 C5.67 10.34 5.34 9.68 5 9 C4.01 8.67 3.02 8.34 2 8 C2 7.34 2 6.68 2 6 C1.34 6 0.68 6 0 6 C0 4.02 0 2.04 0 0 Z " fill="#E3B6B6" transform="translate(922,238)"/>
<path d="M0 0 C0.66 0 1.32 0 2 0 C2 0.66 2 1.32 2 2 C1.34 2 0.68 2 0 2 C0 2.99 0 3.98 0 5 C-0.66 5 -1.32 5 -2 5 C-2.061875 5.66 -2.12375 6.32 -2.1875 7 C-3.30592434 11.12956679 -5.3079635 14.66996641 -8 18 C-8.99 18.33 -9.98 18.66 -11 19 C-9.41145659 14.48473802 -7.07705734 10.68482058 -4.5 6.6875 C-4.09652344 6.04232422 -3.69304687 5.39714844 -3.27734375 4.73242188 C-2.24154258 3.11718738 -1.12659452 1.55327117 0 0 Z " fill="#E5DDDC" transform="translate(132,274)"/>
<path d="M0 0 C3.12718476 0.64237881 5.54857533 1.72680254 8.3125 3.3125 C9.09109375 3.7559375 9.8696875 4.199375 10.671875 4.65625 C11.44015625 5.0996875 12.2084375 5.543125 13 6 C14.35410129 6.77094818 15.70826052 7.5417946 17.0625 8.3125 C18.031875 8.869375 19.00125 9.42625 20 10 C19.34 10.66 18.68 11.32 18 12 C16.02 11.01 14.04 10.02 12 9 C12 8.34 12 7.68 12 7 C10.68 7 9.36 7 8 7 C8 6.34 8 5.68 8 5 C7.05125 4.731875 6.1025 4.46375 5.125 4.1875 C2 3 2 3 0 0 Z " fill="#E3CACA" transform="translate(770,111)"/>
<path d="M0 0 C0.33 0 0.66 0 1 0 C1.05437005 2.85442753 1.09384974 5.70780076 1.125 8.5625 C1.15013672 9.76229492 1.15013672 9.76229492 1.17578125 10.98632812 C1.21723982 16.06500335 0.64056075 20.18811906 -1 25 C-1.33 25 -1.66 25 -2 25 C-1.03644647 8.29157175 -1.03644647 8.29157175 0 0 Z " fill="#E7C1C1" transform="translate(57,473)"/>
<path d="M0 0 C0.66 0.66 1.32 1.32 2 2 C-3.94 7.445 -3.94 7.445 -10 13 C-10.99 12.67 -11.98 12.34 -13 12 C-11.625 10.5 -11.625 10.5 -10 9 C-9.34 9 -8.68 9 -8 9 C-7.67 8.01 -7.34 7.02 -7 6 C-5.37109375 4.39453125 -5.37109375 4.39453125 -3.4375 2.8125 C-2.79683594 2.28269531 -2.15617188 1.75289062 -1.49609375 1.20703125 C-1.00238281 0.80871094 -0.50867188 0.41039062 0 0 Z " fill="#ECF9F8" transform="translate(215,177)"/>
<path d="M0 0 C-0.66 1.65 -1.32 3.3 -2 5 C-3.918125 5.12375 -3.918125 5.12375 -5.875 5.25 C-8.05333418 5.45869931 -8.05333418 5.45869931 -10 6 C-11.5899433 7.92064793 -11.5899433 7.92064793 -12 10 C-13.32 9.34 -14.64 8.68 -16 8 C-13.71125827 6.66141476 -11.41930344 5.32898986 -9.125 4 C-8.47402344 3.6184375 -7.82304687 3.236875 -7.15234375 2.84375 C-2.2265625 0 -2.2265625 0 0 0 Z " fill="#EAD2CD" transform="translate(312,110)"/>
<path d="M0 0 C1.32 0.33 2.64 0.66 4 1 C-1.445 9.415 -1.445 9.415 -7 18 C-7.33 17.01 -7.66 16.02 -8 15 C-7.0390625 13.31640625 -7.0390625 13.31640625 -5.625 11.5625 C-3.6188504 9.05761489 -2.5989199 7.16870413 -2 4 C-1.34 4 -0.68 4 0 4 C0 2.68 0 1.36 0 0 Z " fill="#E3C6C2" transform="translate(948,800)"/>
<path d="M0 0 C4.22936877 2.3974388 7.99276867 5.20240339 11.8125 8.1875 C12.40998047 8.65091797 13.00746094 9.11433594 13.62304688 9.59179688 C15.08392019 10.72543456 16.54222515 11.86238068 18 13 C16.15234375 13.640625 16.15234375 13.640625 14 14 C11.5625 11.75 11.5625 11.75 9 9 C7.34051852 7.98812105 5.67419438 6.9873454 4 6 C1.6875 3.9375 1.6875 3.9375 0 2 C0 1.34 0 0.68 0 0 Z " fill="#E1C5C1" transform="translate(834,152)"/>
<path d="M0 0 C0.66 0.33 1.32 0.66 2 1 C-0.20716463 2.27289905 -2.41567485 3.5433605 -4.625 4.8125 C-5.24246094 5.16892578 -5.85992188 5.52535156 -6.49609375 5.89257812 C-10.27265506 8.05913172 -14.08447772 10.0904299 -18 12 C-16.65117671 8.74928478 -15.5229597 7.38369729 -12.375 5.82421875 C-11.66859375 5.47166016 -10.9621875 5.11910156 -10.234375 4.75585938 C-9.49703125 4.40330078 -8.7596875 4.05074219 -8 3.6875 C-7.26265625 3.31560547 -6.5253125 2.94371094 -5.765625 2.56054688 C-3.87723445 1.63530443 -1.9408698 0.8093929 0 0 Z " fill="#DABFBF" transform="translate(784,960)"/>
<path d="M0 0 C4.9240432 4.7652031 9.44259642 9.88657333 14 15 C11 15 11 15 8.30078125 12.48046875 C7.29612225 11.39064661 6.30033202 10.29259724 5.3125 9.1875 C4.80138672 8.64029297 4.29027344 8.09308594 3.76367188 7.52929688 C0 3.38373039 0 3.38373039 0 0 Z " fill="#DDB7B6" transform="translate(902,214)"/>
<path d="M0 0 C0.33 0 0.66 0 1 0 C1 2.64 1 5.28 1 8 C0.34 8 -0.32 8 -1 8 C-0.979375 9.258125 -0.95875 10.51625 -0.9375 11.8125 C-0.89113917 14.64051087 -1.08307039 16.24921116 -2 19 C-2.66 19 -3.32 19 -4 19 C-3.37968409 12.42465139 -1.85102717 6.33307408 0 0 Z " fill="#E2D9D8" transform="translate(70,411)"/>
<path d="M0 0 C0 0.66 0 1.32 0 2 C-1.90881434 3.03544174 -3.82739204 4.05290085 -5.75 5.0625 C-6.81734375 5.63097656 -7.8846875 6.19945313 -8.984375 6.78515625 C-12.02593537 8.01044806 -13.04893565 8.25348607 -16 7 C-13.71070947 5.82845707 -11.41881638 4.66261926 -9.125 3.5 C-8.47402344 3.16613281 -7.82304687 2.83226563 -7.15234375 2.48828125 C-2.2265625 0 -2.2265625 0 0 0 Z " fill="#E6C4C3" transform="translate(332,100)"/>
<path d="M0 0 C0.66 0.33 1.32 0.66 2 1 C-1.96 5.29 -5.92 9.58 -10 14 C-10 10.78463992 -9.65047697 9.68586936 -8 7 C-6.0546875 5.078125 -6.0546875 5.078125 -3.875 3.25 C-3.15054688 2.63640625 -2.42609375 2.0228125 -1.6796875 1.390625 C-0.84824219 0.70226562 -0.84824219 0.70226562 0 0 Z " fill="#DEC0BC" transform="translate(908,857)"/>
<path d="M0 0 C0.66 0 1.32 0 2 0 C2 1.32 2 2.64 2 4 C2.99 4 3.98 4 5 4 C4.67 6.97 4.34 9.94 4 13 C1.99706653 9.99559979 1.50728374 8.29006055 0.875 4.8125 C0.70742187 3.91144531 0.53984375 3.01039063 0.3671875 2.08203125 C0.24601562 1.39496094 0.12484375 0.70789063 0 0 Z " fill="#E8E4E5" transform="translate(71,670)"/>
<path d="M0 0 C2.27474277 3.41211416 2.56629644 5.6568529 3.125 9.6875 C3.29257812 10.86699219 3.46015625 12.04648437 3.6328125 13.26171875 C3.75398437 14.16535156 3.87515625 15.06898438 4 16 C3.01 15.67 2.02 15.34 1 15 C0.15318867 9.91913204 -0.09038099 5.15171623 0 0 Z " fill="#DFA8A9" transform="translate(1017,443)"/>
<path d="M0 0 C2.00130916 2.54712074 3.85727656 4.9527375 5 8 C4.625 10.25 4.625 10.25 4 12 C3.67 11.34 3.34 10.68 3 10 C2.01 9.67 1.02 9.34 0 9 C0 6.03 0 3.06 0 0 Z " fill="#ECC6C1" transform="translate(972,315)"/>
<path d="M0 0 C2.64 0 5.28 0 8 0 C4.80331012 2.6486859 1.60513403 4.93992341 -2 7 C-1.34 4.69 -0.68 2.38 0 0 Z " fill="#E7CDC7" transform="translate(804,944)"/>
<path d="M0 0 C1.98 0 3.96 0 6 0 C6.061875 0.5775 6.12375 1.155 6.1875 1.75 C7.32027301 4.88690987 9.34197595 6.09167504 12 8 C11.67 8.66 11.34 9.32 11 10 C9.16375669 8.52444734 7.3310715 7.04446569 5.5 5.5625 C4.4790625 4.73878906 3.458125 3.91507813 2.40625 3.06640625 C1.6121875 2.38449219 0.818125 1.70257812 0 1 C0 0.67 0 0.34 0 0 Z " fill="#E4D8DC" transform="translate(224,910)"/>
<path d="M0 0 C6.05135823 0.62065213 12.62493262 2.62493262 17 7 C12.45168539 7.40504471 9.68131992 6.10663029 5.6875 4 C4.61886719 3.443125 3.55023437 2.88625 2.44921875 2.3125 C1.64097656 1.879375 0.83273437 1.44625 0 1 C0 0.67 0 0.34 0 0 Z " fill="#E1CDCE" transform="translate(740,97)"/>
<path d="M0 0 C0.99 0 1.98 0 3 0 C3.99 2.31 4.98 4.62 6 7 C4.68 7.33 3.36 7.66 2 8 C2 6.68 2 5.36 2 4 C1.34 4 0.68 4 0 4 C0 2.68 0 1.36 0 0 Z " fill="#F0D9D6" transform="translate(962,300)"/>
<path d="M0 0 C0.33 0.66 0.66 1.32 1 2 C3.01669827 3.13350534 3.01669827 3.13350534 5 4 C1.69564916 5.12377697 -0.0506862 4.89554742 -3.25 3.5625 C-3.95640625 3.27503906 -4.6628125 2.98757813 -5.390625 2.69140625 C-5.92171875 2.46324219 -6.4528125 2.23507812 -7 2 C-7 1.67 -7 1.34 -7 1 C-2.25 0 -2.25 0 0 0 Z " fill="#DED9D9" transform="translate(386,998)"/>
<path d="M0 0 C0.66 0.33 1.32 0.66 2 1 C-1.3 3.97 -4.6 6.94 -8 10 C-8.66 9.67 -9.32 9.34 -10 9 C-6.7 6.03 -3.4 3.06 0 0 Z " fill="#DEB5B3" transform="translate(866,900)"/>
<path d="M0 0 C0.66 0 1.32 0 2 0 C2.66 0.99 3.32 1.98 4 3 C4.66 3 5.32 3 6 3 C6 3.66 6 4.32 6 5 C5.34 5 4.68 5 4 5 C4.33 6.32 4.66 7.64 5 9 C4.01 9.495 4.01 9.495 3 10 C2.01 6.7 1.02 3.4 0 0 Z " fill="#EADFDE" transform="translate(86,715)"/>
<path d="M0 0 C0.33 0 0.66 0 1 0 C1.027193 1.58323688 1.04648306 3.16661062 1.0625 4.75 C1.07410156 5.63171875 1.08570312 6.5134375 1.09765625 7.421875 C1.00826198 9.7818838 0.66912821 11.74498524 0 14 C-0.66 14 -1.32 14 -2 14 C-1.03644647 4.58997722 -1.03644647 4.58997722 0 0 Z " fill="#E6D2D2" transform="translate(65,430)"/>
<path d="M0 0 C1.670625 0.495 1.670625 0.495 3.375 1 C6.69459717 2.088643 6.69459717 2.088643 9 2 C9.33 3.98 9.66 5.96 10 8 C8.51714758 7.04737966 7.03881799 6.08771595 5.5625 5.125 C4.73878906 4.59132813 3.91507813 4.05765625 3.06640625 3.5078125 C1 2 1 2 0 0 Z " fill="#E5BDC2" transform="translate(249,930)"/>
<path d="M0 0 C0.33 0 0.66 0 1 0 C1 1.98 1 3.96 1 6 C1.66 6 2.32 6 3 6 C3 6.66 3 7.32 3 8 C1.02 8.66 -0.96 9.32 -3 10 C-2.01 6.7 -1.02 3.4 0 0 Z " fill="#EDCACB" transform="translate(81,376)"/>
<path d="M0 0 C0.66 0.33 1.32 0.66 2 1 C1.45730469 1.39832031 0.91460937 1.79664063 0.35546875 2.20703125 C-0.71767578 3.00173828 -0.71767578 3.00173828 -1.8125 3.8125 C-2.87404297 4.59560547 -2.87404297 4.59560547 -3.95703125 5.39453125 C-5.78531393 6.83128877 -7.39896688 8.31815763 -9 10 C-9.66 9.34 -10.32 8.68 -11 8 C-7.37 5.36 -3.74 2.72 0 0 Z " fill="#E6C1C6" transform="translate(249,149)"/>
<path d="M0 0 C1.98 0 3.96 0 6 0 C3.6875 2.5 3.6875 2.5 1 5 C0.01 5 -0.98 5 -2 5 C-2 4.01 -2 3.02 -2 2 C-1.34 2 -0.68 2 0 2 C0 1.34 0 0.68 0 0 Z " fill="#E9CCCA" transform="translate(828,928)"/>
<path d="M0 0 C0.8125 1.6875 0.8125 1.6875 1 4 C-1.1613627 6.51185394 -3.01962439 8.50981219 -6 10 C-4.34832443 6.4213696 -2.21713508 3.25179812 0 0 Z " fill="#E7CDCE" transform="translate(149,249)"/>
<path d="M0 0 C0.33 0.99 0.66 1.98 1 3 C0.01 3 -0.98 3 -2 3 C-2.33 3.99 -2.66 4.98 -3 6 C-4.4375 7.6875 -4.4375 7.6875 -6 9 C-6.66 9 -7.32 9 -8 9 C-6.4169423 4.7257442 -3.49431596 2.73468206 0 0 Z " fill="#E8D9DE" transform="translate(175,219)"/>
<path d="M0 0 C0 0.99 0 1.98 0 3 C0.66 3 1.32 3 2 3 C2 3.66 2 4.32 2 5 C-3.75 3.25 -3.75 3.25 -6 1 C-4 0 -4 0 0 0 Z " fill="#E8F2EC" transform="translate(324,972)"/>
<path d="M0 0 C1.98 0 3.96 0 6 0 C6.33 0.99 6.66 1.98 7 3 C7.99 3.66 8.98 4.32 10 5 C9.01 5.33 8.02 5.66 7 6 C5.17578125 5.0390625 5.17578125 5.0390625 3.3125 3.625 C2.68988281 3.16351562 2.06726563 2.70203125 1.42578125 2.2265625 C0.95527344 1.82179688 0.48476563 1.41703125 0 1 C0 0.67 0 0.34 0 0 Z " fill="#EAC3C2" transform="translate(266,942)"/>
<path d="M0 0 C-3.63 2.31 -7.26 4.62 -11 7 C-11.33 6.34 -11.66 5.68 -12 5 C-10.76265016 3.96386967 -9.50955363 2.94652198 -8.25 1.9375 C-7.55390625 1.36902344 -6.8578125 0.80054688 -6.140625 0.21484375 C-4 -1 -4 -1 0 0 Z " fill="#DCBFBD" transform="translate(824,937)"/>
<path d="M0 0 C0 0.66 0 1.32 0 2 C0.66 2.33 1.32 2.66 2 3 C3.125 5.0625 3.125 5.0625 4 7 C0.08597051 5.73058503 -1.79072873 4.48832306 -4 1 C-2 0 -2 0 0 0 Z " fill="#E4D5D0" transform="translate(244,922)"/>
<path d="M0 0 C3 2 3 2 4 5 C4.99 5.33 5.98 5.66 7 6 C6.34 7.32 5.68 8.64 5 10 C2.35534962 6.8745041 1.15585285 3.91211733 0 0 Z " fill="#E6E3E2" transform="translate(103,754)"/>
<path d="M0 0 C0.33 0.66 0.66 1.32 1 2 C-0.59617578 5.83082186 -1.49984971 7.66656647 -5 10 C-4.49701212 5.59885603 -2.91227269 3.28804981 0 0 Z " fill="#EAD6D6" transform="translate(156,240)"/>
<path d="M0 0 C0.66 0.33 1.32 0.66 2 1 C0.75 3.5 0.75 3.5 -1 6 C-2.32 6 -3.64 6 -5 6 C-5 6.66 -5 7.32 -5 8 C-5.66 8 -6.32 8 -7 8 C-5.50902342 4.2047869 -3.24299151 2.38957269 0 0 Z " fill="#DFEAE8" transform="translate(223,170)"/>
<path d="M0 0 C2 1.75 2 1.75 4 4 C4 5.32 4 6.64 4 8 C3.34 8 2.68 8 2 8 C2 7.34 2 6.68 2 6 C1.34 6 0.68 6 0 6 C0 4.02 0 2.04 0 0 Z " fill="#EED8D1" transform="translate(922,238)"/>
<path d="M0 0 C0.99 0 1.98 0 3 0 C3 0.66 3 1.32 3 2 C2.34 2 1.68 2 1 2 C0.731875 2.78375 0.46375 3.5675 0.1875 4.375 C-1 7 -1 7 -4 9 C-3.3543999 5.51375944 -2.07639763 2.87501211 0 0 Z " fill="#E4A9A8" transform="translate(922,838)"/>
<path d="M0 0 C1.98 0.66 3.96 1.32 6 2 C6.33 3.98 6.66 5.96 7 8 C4.35247996 5.42215154 2.05567935 3.08351902 0 0 Z " fill="#E6DCDB" transform="translate(152,834)"/>
<path d="M0 0 C2.66735273 2.48952921 4.55746343 4.63408134 6 8 C4.35 8 2.7 8 1 8 C0.67 5.36 0.34 2.72 0 0 Z " fill="#E3C1C0" transform="translate(937,258)"/>
<path d="M0 0 C2.76276177 0.52268466 5.3260876 1.10869587 8 2 C8 2.66 8 3.32 8 4 C8.66 4.33 9.32 4.66 10 5 C7.23723823 4.47731534 4.6739124 3.89130413 2 3 C2 2.34 2 1.68 2 1 C1.34 0.67 0.68 0.34 0 0 Z " fill="#E8B2B2" transform="translate(790,123)"/>
<path d="M0 0 C4.95 1.98 4.95 1.98 10 4 C9.67 4.66 9.34 5.32 9 6 C6.0625 5.625 6.0625 5.625 3 5 C2.67 4.34 2.34 3.68 2 3 C1.01 2.34 0.02 1.68 -1 1 C-0.67 0.67 -0.34 0.34 0 0 Z " fill="#E6D4D2" transform="translate(727,90)"/>
<path d="M0 0 C2.64 0.33 5.28 0.66 8 1 C7.34 2.32 6.68 3.64 6 5 C3.98079663 3.69593116 1.98075027 2.36176581 0 1 C0 0.67 0 0.34 0 0 Z " fill="#EBC1C1" transform="translate(286,955)"/>
<path d="M0 0 C2.52349243 3.12432397 4.27256146 6.38060496 6 10 C3.54896452 9.01958581 2.23241214 8.3486182 0.75 6.125 C0 4 0 4 0 0 Z " fill="#E1CAC7" transform="translate(958,290)"/>
<path d="M0 0 C0.66 0.33 1.32 0.66 2 1 C0.35 2.98 -1.3 4.96 -3 7 C-3.99 6.67 -4.98 6.34 -6 6 C-4.625 4.5 -4.625 4.5 -3 3 C-2.34 3 -1.68 3 -1 3 C-0.67 2.01 -0.34 1.02 0 0 Z " fill="#EFA5B4" transform="translate(208,183)"/>
<path d="M0 0 C2.97 0 5.94 0 9 0 C8.67 1.32 8.34 2.64 8 4 C5.36 3.01 2.72 2.02 0 1 C0 0.67 0 0.34 0 0 Z " fill="#E1C5C4" transform="translate(359,992)"/>
<path d="M0 0 C2.66666667 1.33333333 5.33333333 2.66666667 8 4 C8 4.99 8 5.98 8 7 C4.2047869 5.50902342 2.38957269 3.24299151 0 0 Z " fill="#E1C9C9" transform="translate(214,901)"/>
<path d="M0 0 C0.66 0.99 1.32 1.98 2 3 C0.35 4.98 -1.3 6.96 -3 9 C-4 6 -4 6 -3 3 C-2.01 3 -1.02 3 0 3 C0 2.01 0 1.02 0 0 Z " fill="#EAA9A7" transform="translate(914,848)"/>
<path d="M0 0 C0.99 0.33 1.98 0.66 3 1 C3 1.66 3 2.32 3 3 C4.32 3 5.64 3 7 3 C6.34 4.32 5.68 5.64 5 7 C0 1.125 0 1.125 0 0 Z " fill="#E3C6C1" transform="translate(159,843)"/>
<path d="M0 0 C0.309375 0.639375 0.61875 1.27875 0.9375 1.9375 C1.8345163 3.93610821 1.8345163 3.93610821 3 5 C3.04092937 7.33297433 3.04241723 9.66705225 3 12 C0.79680323 7.59360646 -0.10924981 5.02549129 0 0 Z " fill="#E4BCBC" transform="translate(998,374)"/>
</svg>
